<?xml version="1.0" encoding="UTF-8" standalone="no"?><!DOCTYPE svg PUBLIC "-//W3C//DTD SVG 1.1//EN" "http://www.w3.org/Graphics/SVG/1.1/DTD/svg11.dtd"><svg width="100%" height="100%" viewBox="0 0 988 988" version="1.1" xmlns="http://www.w3.org/2000/svg" xmlns:xlink="http://www.w3.org/1999/xlink" xml:space="preserve" xmlns:serif="http://www.serif.com/" style="fill-rule:evenodd;clip-rule:evenodd;stroke-linejoin:round;stroke-miterlimit:2;"><circle cx="491.667" cy="492.125" r="492.125"/><rect x="75" y="241.667" width="833.333" height="8.333" style="fill:#080200;"/><rect x="76.279" y="735.533" width="831.692" height="8.333" style="fill:#080200;"/><rect x="487.958" y="735.729" width="8.333" height="241.142" style="fill:#080200;"/><rect x="487.958" y="7.383" width="8.333" height="241.142" style="fill:#080200;"/><path d="M79.525,241.667c84.083,-137.975 235.487,-230.504 408.433,-231.808l0,231.808l-408.433,0Z" style="fill:#fff8b6;"/><path d="M76.279,737.179c-42.5,-71.833 -66.896,-155.617 -66.896,-245.054c0,-88.538 23.908,-171.533 65.617,-242.879l0,0.754l833.333,0l0,-0.754c41.708,71.346 65.617,154.342 65.617,242.879c0,88.792 -24.046,172.012 -65.979,243.496l0,-0.092l-831.692,0l-0,1.65Z" style="fill:#fff8b6;"/><path d="M903.025,743.867c-84.088,137.025 -234.704,228.904 -406.733,230.521l0,-230.521l406.733,0Z" style="fill:#fff8b6;"/><path d="M496.292,9.863c172.563,1.625 323.583,94.071 407.517,231.804l-407.517,0l0,-231.804Z" style="fill:#ffcf2f;"/><path d="M487.958,974.396c-172.413,-1.3 -323.417,-93.262 -407.654,-230.529l407.654,0l0,230.529Z" style="fill:#ffcf2f;"/><g><path d="M487.599,707.642l-101.126,-424.019l-52.337,0l-267.895,424.019l51.45,0l89.594,-144.592l195.155,0l34.596,144.592l50.563,0Zm-94.029,-183.623l-162.334,0l118.867,-191.607l43.466,191.607Z" style="fill:#d2522e;fill-rule:nonzero;"/><path d="M883.232,400.716c12.419,-73.627 -28.386,-117.093 -123.303,-117.093l-146.366,0l-74.514,424.019l46.128,0l67.417,-383.214l102.9,0c63.869,0 91.368,25.725 82.497,75.401c-10.645,61.208 -45.24,83.384 -123.303,83.384l-81.61,0l8.871,39.918l84.272,0c81.61,0 141.044,-36.37 157.011,-122.415Z" style="fill:#d2522e;fill-rule:nonzero;"/></g></svg>