<?xml version="1.0" encoding="UTF-8" standalone="no"?><!DOCTYPE svg PUBLIC "-//W3C//DTD SVG 1.1//EN" "http://www.w3.org/Graphics/SVG/1.1/DTD/svg11.dtd"><svg width="100%" height="100%" viewBox="0 0 800 800" version="1.1" xmlns="http://www.w3.org/2000/svg" xmlns:xlink="http://www.w3.org/1999/xlink" xml:space="preserve" xmlns:serif="http://www.serif.com/" style="fill-rule:evenodd;clip-rule:evenodd;stroke-linejoin:round;stroke-miterlimit:2;"><path d="M399,607.248c15.001,0 27.163,-12.162 27.163,-27.163l0,-217.302c0,-15.001 -12.162,-27.163 -27.163,-27.163c-15.001,0 -27.163,12.162 -27.163,27.163l0,217.302c0,15.001 12.162,27.163 27.163,27.163Z" style="fill-rule:nonzero;"/><path d="M399,217.915c20.003,0 36.217,16.215 36.217,36.217c0,20.002 -16.214,36.217 -36.217,36.217c-20.003,0 -36.217,-16.215 -36.217,-36.217c0,-20.002 16.214,-36.217 36.217,-36.217Z" style="fill-rule:nonzero;"/><path d="M9.667,399c0,-215.023 174.311,-389.333 389.333,-389.333c215.024,0 389.333,174.311 389.333,389.333c0,215.024 -174.309,389.333 -389.333,389.333c-215.023,0 -389.333,-174.309 -389.333,-389.333Zm389.333,-335.008c-185.02,0 -335.008,149.988 -335.008,335.008c0,185.018 149.988,335.008 335.008,335.008c185.018,0 335.008,-149.989 335.008,-335.008c0,-185.02 -149.989,-335.008 -335.008,-335.008Z"/></svg>