<?xml version="1.0" encoding="UTF-8" standalone="no"?>
<!DOCTYPE svg PUBLIC "-//W3C//DTD SVG 1.1//EN" "http://www.w3.org/Graphics/SVG/1.1/DTD/svg11.dtd">
<svg width="100%" height="100%" viewBox="0 0 800 800" version="1.1" xmlns="http://www.w3.org/2000/svg" xmlns:xlink="http://www.w3.org/1999/xlink" xml:space="preserve" xmlns:serif="http://www.serif.com/" style="fill-rule:evenodd;clip-rule:evenodd;stroke-linecap:round;stroke-linejoin:round;">
    <g transform="matrix(33.333333,0,0,33.333333,0,0)">
        <path d="M16.243,12L19.071,9.172C19.071,9.172 20.485,7.757 18.364,5.636C16.243,3.515 14.829,4.929 14.829,4.929C14.829,4.929 12.707,7.05 11.293,8.464C9.879,9.879 9.879,11.293 10.586,12" style="fill:none;fill-rule:nonzero;stroke:black;stroke-width:1px;"/>
        <path d="M7.757,12L4.929,14.828C4.929,14.828 3.515,16.243 5.636,18.364C7.757,20.485 9.172,19.071 9.172,19.071C9.172,19.071 10.939,17.303 12.354,15.889C13.768,14.475 14.121,12.707 13.414,12" style="fill:none;fill-rule:nonzero;stroke:black;stroke-width:1px;"/>
    </g>
</svg>
