<?xml version="1.0" encoding="UTF-8" standalone="no"?><!DOCTYPE svg PUBLIC "-//W3C//DTD SVG 1.1//EN" "http://www.w3.org/Graphics/SVG/1.1/DTD/svg11.dtd"><svg width="100%" height="100%" viewBox="0 0 800 800" version="1.1" xmlns="http://www.w3.org/2000/svg" xmlns:xlink="http://www.w3.org/1999/xlink" xml:space="preserve" xmlns:serif="http://www.serif.com/" style="fill-rule:evenodd;clip-rule:evenodd;stroke-linecap:round;stroke-linejoin:round;"><path d="M366.796,752.333c-18.049,0 -33.446,-13.316 -36.385,-31.469c-2.707,-14.686 -13.079,-26.686 -27.032,-31.269c-11.369,-3.98 -22.486,-8.673 -33.285,-14.053c-12.85,-6.7 -28.266,-5.697 -40.178,2.61c-14.415,10.565 -34.218,8.929 -46.776,-3.865l-48.844,-49.789c-13.145,-13.401 -14.853,-34.526 -4.037,-49.94c8.341,-12.422 9.542,-28.438 3.151,-42.009c-4.211,-9.426 -7.926,-19.077 -11.128,-28.91c-4.586,-15.494 -17.244,-27.098 -32.842,-30.114c-18.809,-3.062 -32.695,-19.529 -32.841,-38.948l0,-62.286c-0.1,-22.38 15.758,-41.523 37.42,-45.171c16.434,-3.187 30.156,-14.661 36.436,-30.466c1.871,-4.45 3.841,-8.867 5.908,-13.25c8.352,-16.39 7.198,-36.132 -3.004,-51.395c-12.758,-18.075 -10.799,-42.908 4.628,-58.673l35.894,-36.589c17.703,-18.053 45.624,-20.389 65.978,-5.521l1.132,0.803c15.199,10.428 34.539,12.316 51.404,5.019c18.042,-6.62 31.341,-22.423 35.008,-41.608l0.495,-1.706c4.05,-25.398 25.568,-44.057 50.813,-44.067l43.329,0c25.922,-0.012 48.046,19.101 52.288,45.171l0.788,3.513c3.479,18.378 16.089,33.588 33.285,40.152c16.574,7.251 35.633,5.357 50.52,-5.019l2.459,-1.807c20.882,-15.341 49.596,-12.982 67.801,5.571l33.037,33.728c16.559,16.972 18.64,43.662 4.924,63.089c-10.746,16.238 -12.115,37.103 -3.596,54.657l2.121,5.019c6.898,17.14 21.831,29.562 39.683,33.025c23.336,3.88 40.496,24.388 40.572,48.484l0,55.862c-0.005,21.251 -15.084,39.379 -35.648,42.863c-16.912,3.308 -30.689,15.79 -35.895,32.523c-2.298,6.69 -4.858,13.386 -7.681,20.076c-6.57,14.706 -5.111,31.841 3.843,45.171c11.812,16.754 9.979,39.766 -4.333,54.356l-45.839,46.778c-13.11,13.361 -33.784,15.082 -48.844,4.065c-12.574,-8.758 -28.861,-9.722 -42.344,-2.51c-9.61,4.853 -19.473,9.16 -29.542,12.899c-14.084,4.954 -24.467,17.24 -27.179,32.172c-2.873,18.786 -18.675,32.684 -37.325,32.825l-68.342,0Z" style="fill:none;stroke:#000;stroke-width:75.52px;"/><path d="M516.135,401c0,64.67 -51.429,117.094 -114.872,117.094c-63.443,0 -114.871,-52.424 -114.871,-117.094c0,-64.67 51.428,-117.095 114.871,-117.095c63.443,0 114.872,52.424 114.872,117.095Z" style="fill:none;stroke:#000;stroke-width:75.52px;"/></svg>